<svg width="80" height="80" viewBox="0 0 80 80" fill="none" xmlns="http://www.w3.org/2000/svg">
<path d="M44.0307 25.2533C44.0307 27.478 42.2249 29.2838 40.0002 29.2838C37.7755 29.2838 35.9697 27.478 35.9697 25.2533V19.2077C35.9697 16.983 37.7755 15.1772 40.0002 15.1772C42.2249 15.1772 44.0307 16.983 44.0307 19.2077V25.2533Z" fill="#F5F5F5"/>
<path d="M42.041 59.0087V34.79H38.0098V59.0154C38.6626 59.0961 39.3267 59.137 40.0001 59.137C40.6912 59.137 41.372 59.093 42.041 59.0083L42.041 59.0087Z" fill="#F5F5F5"/>
<path d="M38.0091 65.7181V72.1142L35.7964 69.8605L32.9717 72.7412L37.1998 77.0452L37.1878 77.0579L40.0134 79.9371L40.0253 79.9252L40.0373 79.9371L42.8629 77.0579L42.8509 77.0452L47.079 72.7412L44.2535 69.8605L42.0407 72.1142V65.7134C41.3704 65.7798 40.6894 65.8157 39.9999 65.8157C39.3277 65.8155 38.6645 65.7811 38.0093 65.7181L38.0091 65.7181Z" fill="#F5F5F5"/>
<path d="M40 0.0632324C28.87 0.0632324 19.8486 9.08457 19.8486 20.2146V44.3966C19.8486 54.8532 27.8153 63.4512 38.0106 64.4512C38.6658 64.5145 39.3291 64.5489 40.001 64.5489C40.6898 64.5489 41.3705 64.5137 42.0418 64.4465C52.2132 63.4241 60.1532 54.8359 60.1532 44.3972V20.2152C60.1516 9.08587 51.1298 0.0638724 40.0005 0.0638724L40 0.0632324ZM56.1213 44.3966C56.1213 52.5952 49.9692 59.3832 42.0406 60.3892C41.3719 60.4741 40.6912 60.5181 39.9998 60.5181C39.3261 60.5181 38.6623 60.4765 38.0094 60.395C30.0561 59.4119 23.8781 52.6116 23.8781 44.3963V20.2143C23.8781 11.3256 31.1108 4.09363 39.9994 4.09363C48.8881 4.09363 56.1208 11.3263 56.1208 20.2143L56.1213 44.3966Z" fill="#F5F5F5"/>
</svg>
